<svg xmlns="http://www.w3.org/2000/svg" version="1.1" xmlns:xlink="http://www.w3.org/1999/xlink" xmlns:svgjs="http://svgjs.com/svgjs" width="512" height="512" x="0" y="0" viewBox="0 0 322.558 322.558" style="enable-background:new 0 0 512 512" xml:space="preserve" class=""><g><path d="M321.6 180.601c-.8-1.6-2.8-2.4-4.4-2.8-9.2 0-88.4-3.2-88.4-95.2 0-2.8-2.4-5.2-5.2-5.2-2.8 0-5.2 2.4-5.2 5.2 0 92-79.2 95.2-88 95.2-1.2 0-2.4.4-3.2 1.2-.8.4-1.2 1.2-1.6 1.6-.8 1.6-.8 3.6 0 5.2s2.8 2.8 4.8 2.8h.4c9.2 0 88 3.2 88 95.2 0 2.8 2.4 5.2 5.2 5.2 2.8 0 5.2-2.4 5.2-5.2 0-91.6 78.8-95.2 88-95.2 2 0 3.6-1.2 4.8-2.8.8-1.6.8-3.6-.4-5.2zm-98 64c-11.6-38-40-54.4-62.4-61.6 22.4-7.2 50.8-23.6 62.4-61.6 11.6 38 40 54.4 62.4 61.6-22.4 7.2-50.8 23.6-62.4 61.6zM157.6 76.601c2.8 0 5.2-2.4 5.2-5.6 0-2.8-2.4-5.2-5.2-5.2-4.8 0-48-1.6-48-52 0-2.8-2.4-5.2-5.2-5.2-2.8 0-5.2 2.4-5.2 5.2 0 50.4-43.2 52-48 52h-.4c-2.8.4-4.8 2.4-4.8 5.2s2.4 5.2 5.2 5.2c5.2 0 48 1.6 48 52 0 2.8 2.4 5.2 5.2 5.2 2.4.4 4.8-2 4.8-4.8 0-50.4 43.2-52 48-52h.4zm-53.6 22.8c-6.4-15.2-18-23.6-28.8-28.4 11.6-4.8 22.4-14 28.8-28.4 6.4 15.2 18 23.6 28.8 28.4-11.6 4.8-22.4 14-28.8 28.4zM111.6 246.201c-4.8 0-48-1.6-48-52 0-2.8-2.4-5.2-5.2-5.2-2.8 0-5.2 2.4-5.2 5.2 0 50.4-43.2 52-48 52h-.4c-2.8.4-4.8 2.4-4.8 5.2 0 2.8 2.4 5.2 5.2 5.2 5.2 0 48 1.6 48 52 0 2.8 2.4 5.2 5.2 5.2 2.4.8 4.8-1.6 4.8-4.8 0-50.4 43.2-52 48-52h.4c2.8 0 5.2-2.4 5.2-5.6 0-2.8-2.4-5.2-5.2-5.2zm-53.6 34c-6.8-15.2-18-23.6-28.8-28.4 11.6-4.8 22.4-14 28.8-28.4 6.4 15.2 18 23.6 28.8 28.4-11.6 4.8-22.4 14-28.8 28.4z" fill="#cf9f8c" data-original="#000000"></path></g></svg>