<?xml version="1.0" encoding="UTF-8" standalone="no"?>
<!DOCTYPE svg PUBLIC "-//W3C//DTD SVG 1.1//EN" "http://www.w3.org/Graphics/SVG/1.1/DTD/svg11.dtd">
<svg width="100%" height="100%" viewBox="0 0 512 512" version="1.1" xmlns="http://www.w3.org/2000/svg" xmlns:xlink="http://www.w3.org/1999/xlink" xml:space="preserve" xmlns:serif="http://www.serif.com/" style="fill-rule:evenodd;clip-rule:evenodd;stroke-linejoin:round;stroke-miterlimit:2;">
    <g>
        <g>
            <g>
                <path d="M160,288C177.673,288 192,302.327 192,320L224,320C224,284.654 195.346,256 160,256C124.654,256 96,284.654 96,320L96,352C96,387.346 124.654,416 160,416C195.346,416 224,387.346 224,352L192,352C192,369.673 177.673,384 160,384C142.327,384 128,369.673 128,352L128,320C128,302.327 142.327,288 160,288Z" style="fill:rgb(207,159,140);fill-rule:nonzero;"/>
                <path d="M32,464L32,48C32,39.163 39.163,32 48,32L288,32L288,96C288,113.673 302.327,128 320,128L384,128L384,176L416,176L416,112C416.025,107.747 414.355,103.659 411.36,100.64L315.36,4.64C312.341,1.645 308.253,-0.024 304,0L48,0C21.49,0 0,21.491 0,48L0,464C0,490.51 21.49,512 48,512L160,512L160,480L48,480C39.164,480 32,472.837 32,464Z" style="fill:rgb(207,159,140);fill-rule:nonzero;"/>
                <path d="M464,320L432,320C423.163,320 416,312.837 416,304C416,295.163 423.163,288 432,288L464,288C472.837,288 480,295.163 480,304L512,304C512,277.49 490.51,256 464,256L432,256C405.49,256 384,277.49 384,304C384,330.51 405.49,352 432,352L464,352C472.837,352 480,359.163 480,368C480,376.837 472.837,384 464,384L432,384C423.163,384 416,376.837 416,368L384,368C384,394.51 405.49,416 432,416L464,416C490.51,416 512,394.51 512,368C512,341.491 490.51,320 464,320Z" style="fill:rgb(207,159,140);fill-rule:nonzero;"/>
                <path d="M288,288L320,288C328.837,288 336,295.163 336,304L368,304C368,277.49 346.51,256 320,256L288,256C261.49,256 240,277.49 240,304C240,330.51 261.49,352 288,352L320,352C328.837,352 336,359.163 336,368C336,376.837 328.837,384 320,384L288,384C279.163,384 272,376.837 272,368L240,368C240,394.51 261.49,416 288,416L320,416C346.51,416 368,394.51 368,368C368,341.49 346.51,320 320,320L288,320C279.163,320 272,312.837 272,304C272,295.163 279.164,288 288,288Z" style="fill:rgb(207,159,140);fill-rule:nonzero;"/>
            </g>
        </g>
    </g>
</svg>
