<?xml version="1.0" encoding="UTF-8" standalone="no"?>
<!DOCTYPE svg PUBLIC "-//W3C//DTD SVG 1.1//EN" "http://www.w3.org/Graphics/SVG/1.1/DTD/svg11.dtd">
<svg width="100%" height="100%" viewBox="0 0 512 512" version="1.1" xmlns="http://www.w3.org/2000/svg" xmlns:xlink="http://www.w3.org/1999/xlink" xml:space="preserve" xmlns:serif="http://www.serif.com/" style="fill-rule:evenodd;clip-rule:evenodd;stroke-linejoin:round;stroke-miterlimit:2;">
    <g>
        <path d="M360.108,142.223C360.108,167.444 339.592,187.97 314.362,187.97L267.147,187.97L267.147,96.477L314.362,96.477C339.592,96.477 360.108,117.003 360.108,142.223Z" style="fill:rgb(207,159,140);fill-rule:nonzero;"/>
        <path d="M314.362,210.254L312.893,210.254C287.663,210.254 267.147,230.78 267.147,256C267.147,281.23 287.663,301.746 312.893,301.746L314.362,301.746C339.592,301.746 360.108,281.23 360.108,256C360.108,230.78 339.592,210.254 314.362,210.254ZM197.638,96.477C172.408,96.477 151.892,117.003 151.892,142.223C151.892,167.444 172.408,187.97 197.638,187.97L244.853,187.97L244.853,96.477L197.638,96.477ZM197.638,96.477C172.408,96.477 151.892,117.003 151.892,142.223C151.892,167.444 172.408,187.97 197.638,187.97L244.853,187.97L244.853,96.477L197.638,96.477ZM314.362,210.254L312.893,210.254C287.663,210.254 267.147,230.78 267.147,256C267.147,281.23 287.663,301.746 312.893,301.746L314.362,301.746C339.592,301.746 360.108,281.23 360.108,256C360.108,230.78 339.592,210.254 314.362,210.254ZM197.638,210.254C172.408,210.254 151.892,230.78 151.892,256C151.892,281.23 172.408,301.746 197.638,301.746L244.853,301.746L244.853,210.254L197.638,210.254ZM197.638,96.477C172.408,96.477 151.892,117.003 151.892,142.223C151.892,167.444 172.408,187.97 197.638,187.97L244.853,187.97L244.853,96.477L197.638,96.477ZM197.638,96.477C172.408,96.477 151.892,117.003 151.892,142.223C151.892,167.444 172.408,187.97 197.638,187.97L244.853,187.97L244.853,96.477L197.638,96.477ZM197.638,210.254C172.408,210.254 151.892,230.78 151.892,256C151.892,281.23 172.408,301.746 197.638,301.746L244.853,301.746L244.853,210.254L197.638,210.254ZM314.362,210.254L312.893,210.254C287.663,210.254 267.147,230.78 267.147,256C267.147,281.23 287.663,301.746 312.893,301.746L314.362,301.746C339.592,301.746 360.108,281.23 360.108,256C360.108,230.78 339.592,210.254 314.362,210.254ZM314.362,210.254L312.893,210.254C287.663,210.254 267.147,230.78 267.147,256C267.147,281.23 287.663,301.746 312.893,301.746L314.362,301.746C339.592,301.746 360.108,281.23 360.108,256C360.108,230.78 339.592,210.254 314.362,210.254ZM151.892,369.777C151.892,394.997 172.578,415.523 197.998,415.523C223.838,415.523 244.853,394.667 244.853,369.038L244.853,324.03L197.638,324.03C172.408,324.03 151.892,344.556 151.892,369.777ZM151.892,256C151.892,281.23 172.408,301.746 197.638,301.746L244.853,301.746L244.853,210.254L197.638,210.254C172.408,210.254 151.892,230.78 151.892,256ZM151.892,142.223C151.892,167.444 172.408,187.97 197.638,187.97L244.853,187.97L244.853,96.477L197.638,96.477C172.408,96.477 151.892,117.003 151.892,142.223ZM456.675,0L55.325,0C24.771,0 0,24.771 0,55.325L0,456.675C0,487.229 24.771,512 55.325,512L456.675,512C487.229,512 512,487.229 512,456.675L512,55.325C512,24.771 487.229,0 456.675,0ZM382.392,256C382.392,293.516 351.878,324.03 314.362,324.03L312.893,324.03C295.294,324.03 279.233,317.308 267.147,306.311L267.147,369.038C267.147,406.953 236.123,437.807 197.998,437.807C160.282,437.807 129.608,407.293 129.608,369.777C129.608,346.005 141.854,325.049 160.372,312.893C141.854,300.728 129.608,279.772 129.608,256C129.608,232.238 141.854,211.282 160.372,199.117C141.854,186.951 129.608,165.995 129.608,142.223C129.608,104.707 160.122,74.193 197.638,74.193L314.362,74.193C351.878,74.193 382.392,104.707 382.392,142.223C382.392,165.995 370.146,186.951 351.628,199.117C370.146,211.282 382.392,232.238 382.392,256ZM314.362,210.254L312.893,210.254C287.663,210.254 267.147,230.78 267.147,256C267.147,281.23 287.663,301.746 312.893,301.746L314.362,301.746C339.592,301.746 360.108,281.23 360.108,256C360.108,230.78 339.592,210.254 314.362,210.254ZM151.892,369.777C151.892,394.997 172.578,415.523 197.998,415.523C223.838,415.523 244.853,394.667 244.853,369.038L244.853,324.03L197.638,324.03C172.408,324.03 151.892,344.556 151.892,369.777ZM151.892,256C151.892,281.23 172.408,301.746 197.638,301.746L244.853,301.746L244.853,210.254L197.638,210.254C172.408,210.254 151.892,230.78 151.892,256ZM151.892,142.223C151.892,167.444 172.408,187.97 197.638,187.97L244.853,187.97L244.853,96.477L197.638,96.477C172.408,96.477 151.892,117.003 151.892,142.223ZM197.638,96.477C172.408,96.477 151.892,117.003 151.892,142.223C151.892,167.444 172.408,187.97 197.638,187.97L244.853,187.97L244.853,96.477L197.638,96.477ZM197.638,210.254C172.408,210.254 151.892,230.78 151.892,256C151.892,281.23 172.408,301.746 197.638,301.746L244.853,301.746L244.853,210.254L197.638,210.254ZM197.638,324.03C172.408,324.03 151.892,344.556 151.892,369.777C151.892,394.997 172.578,415.523 197.998,415.523C223.838,415.523 244.853,394.667 244.853,369.038L244.853,324.03L197.638,324.03ZM314.362,210.254L312.893,210.254C287.663,210.254 267.147,230.78 267.147,256C267.147,281.23 287.663,301.746 312.893,301.746L314.362,301.746C339.592,301.746 360.108,281.23 360.108,256C360.108,230.78 339.592,210.254 314.362,210.254ZM314.362,210.254L312.893,210.254C287.663,210.254 267.147,230.78 267.147,256C267.147,281.23 287.663,301.746 312.893,301.746L314.362,301.746C339.592,301.746 360.108,281.23 360.108,256C360.108,230.78 339.592,210.254 314.362,210.254ZM197.638,210.254C172.408,210.254 151.892,230.78 151.892,256C151.892,281.23 172.408,301.746 197.638,301.746L244.853,301.746L244.853,210.254L197.638,210.254ZM197.638,96.477C172.408,96.477 151.892,117.003 151.892,142.223C151.892,167.444 172.408,187.97 197.638,187.97L244.853,187.97L244.853,96.477L197.638,96.477ZM197.638,96.477C172.408,96.477 151.892,117.003 151.892,142.223C151.892,167.444 172.408,187.97 197.638,187.97L244.853,187.97L244.853,96.477L197.638,96.477ZM197.638,210.254C172.408,210.254 151.892,230.78 151.892,256C151.892,281.23 172.408,301.746 197.638,301.746L244.853,301.746L244.853,210.254L197.638,210.254ZM314.362,210.254L312.893,210.254C287.663,210.254 267.147,230.78 267.147,256C267.147,281.23 287.663,301.746 312.893,301.746L314.362,301.746C339.592,301.746 360.108,281.23 360.108,256C360.108,230.78 339.592,210.254 314.362,210.254ZM197.638,96.477C172.408,96.477 151.892,117.003 151.892,142.223C151.892,167.444 172.408,187.97 197.638,187.97L244.853,187.97L244.853,96.477L197.638,96.477ZM197.638,96.477C172.408,96.477 151.892,117.003 151.892,142.223C151.892,167.444 172.408,187.97 197.638,187.97L244.853,187.97L244.853,96.477L197.638,96.477ZM314.362,210.254L312.893,210.254C287.663,210.254 267.147,230.78 267.147,256C267.147,281.23 287.663,301.746 312.893,301.746L314.362,301.746C339.592,301.746 360.108,281.23 360.108,256C360.108,230.78 339.592,210.254 314.362,210.254Z" style="fill:rgb(207,159,140);fill-rule:nonzero;"/>
    </g>
</svg>
