<?xml version="1.0" encoding="UTF-8" standalone="no"?>
<!DOCTYPE svg PUBLIC "-//W3C//DTD SVG 1.1//EN" "http://www.w3.org/Graphics/SVG/1.1/DTD/svg11.dtd">
<svg width="100%" height="100%" viewBox="0 0 512 512" version="1.1" xmlns="http://www.w3.org/2000/svg" xmlns:xlink="http://www.w3.org/1999/xlink" xml:space="preserve" xmlns:serif="http://www.serif.com/" style="fill-rule:evenodd;clip-rule:evenodd;stroke-linejoin:round;stroke-miterlimit:2;">
    <g id="Layer_2_00000139992070164898275570000017758719175361977789_">
        <g id="Surfaces_00000005262748026417272620000000272620920402432403_">
            <g id="Drawing_Surface_1_">
                <g id="Outline_no_shadow_00000031186969925551911540000009553510160061498536_">
                    <path d="M208,173.65L207.57,173.65L181.12,262.61L235.31,262.61L208,173.65ZM208,173.65L207.57,173.65L181.12,262.61L235.31,262.61L208,173.65ZM421.33,6.4L90.67,6.4C40.53,6.4 0,46.93 0,97.07L0,414.93C0,465.07 40.53,505.6 90.67,505.6L421.33,505.6C471.47,505.6 512,465.07 512,414.93L512,97.07C512,46.93 471.47,6.4 421.33,6.4ZM313.6,359.04L269.01,359.04C267.52,359.25 266.03,358.19 265.6,356.69L248.11,305.92L168.75,305.92L152.53,356.05C152.11,357.97 150.4,359.25 148.48,359.04L108.37,359.04C106.03,359.04 105.39,357.76 106.03,355.2L174.72,157.44C175.36,155.31 176,152.96 176.85,150.4C177.71,145.92 178.13,141.23 178.13,136.53C177.92,135.47 178.77,134.4 179.84,134.19L235.09,134.19C236.8,134.19 237.65,134.83 237.87,135.89L315.73,355.63C316.37,357.97 315.73,359.04 313.6,359.04ZM386.13,355.84C386.13,358.19 385.28,359.25 383.36,359.25L341.55,359.25C339.41,359.25 338.35,357.97 338.35,355.84L338.35,191.57C338.35,189.44 339.2,188.59 341.12,188.59L383.36,188.59C385.28,188.59 386.13,189.65 386.13,191.57L386.13,355.84ZM381.65,163.2C376.75,168.32 369.49,171.09 362.24,170.67C355.2,170.88 348.37,168.11 343.25,163.2C338.35,157.87 335.79,150.83 336,143.57C335.79,136.32 338.56,129.49 343.68,124.59C348.8,119.68 355.63,117.12 362.67,117.12C370.99,117.12 377.39,119.68 382.08,124.59C386.77,129.71 389.33,136.53 389.12,143.57C389.33,150.83 386.77,157.87 381.65,163.2ZM207.57,173.65L181.12,262.61L235.31,262.61L208,173.65L207.57,173.65Z" style="fill:rgb(207,159,140);fill-rule:nonzero;"/>
                </g>
            </g>
        </g>
    </g>
</svg>
