<?xml version="1.0" encoding="UTF-8" standalone="no"?>
<!DOCTYPE svg PUBLIC "-//W3C//DTD SVG 1.1//EN" "http://www.w3.org/Graphics/SVG/1.1/DTD/svg11.dtd">
<svg width="100%" height="100%" viewBox="0 0 410 410" version="1.1" xmlns="http://www.w3.org/2000/svg" xmlns:xlink="http://www.w3.org/1999/xlink" xml:space="preserve" xmlns:serif="http://www.serif.com/" style="fill-rule:evenodd;clip-rule:evenodd;stroke-linejoin:round;stroke-miterlimit:2;">
    <g>
        <g>
            <path d="M307.205,0L102.405,0C46.09,0 0.005,46.085 0.005,102.4L0.005,307.21C0.005,363.51 46.09,409.61 102.405,409.61L307.205,409.61C363.52,409.61 409.605,363.51 409.605,307.21L409.605,102.4C409.605,46.085 363.52,0 307.205,0ZM375.47,307.21C375.47,344.842 344.858,375.475 307.205,375.475L102.405,375.475C64.768,375.475 34.14,344.842 34.14,307.21L34.14,102.4C34.14,64.758 64.768,34.135 102.405,34.135L307.205,34.135C344.858,34.135 375.47,64.758 375.47,102.4L375.47,307.21Z" style="fill:white;fill-rule:nonzero;"/>
        </g>
    </g>
    <g>
        <g>
            <circle cx="315.755" cy="93.865" r="25.6" style="fill:white;"/>
        </g>
    </g>
    <g>
        <g>
            <path d="M204.805,102.4C148.239,102.4 102.405,148.239 102.405,204.8C102.405,261.34 148.239,307.21 204.805,307.21C261.355,307.21 307.205,261.34 307.205,204.8C307.205,148.239 261.355,102.4 204.805,102.4ZM204.805,273.075C167.106,273.075 136.54,242.509 136.54,204.8C136.54,167.091 167.106,136.535 204.805,136.535C242.504,136.535 273.07,167.091 273.07,204.8C273.07,242.509 242.504,273.075 204.805,273.075Z" style="fill:white;fill-rule:nonzero;"/>
        </g>
    </g>
</svg>
