<?xml version="1.0" encoding="UTF-8" standalone="no"?>
<!DOCTYPE svg PUBLIC "-//W3C//DTD SVG 1.1//EN" "http://www.w3.org/Graphics/SVG/1.1/DTD/svg11.dtd">
<svg width="100%" height="100%" viewBox="0 0 512 512" version="1.1" xmlns="http://www.w3.org/2000/svg" xmlns:xlink="http://www.w3.org/1999/xlink" xml:space="preserve" xmlns:serif="http://www.serif.com/" style="fill-rule:evenodd;clip-rule:evenodd;stroke-linejoin:round;stroke-miterlimit:2;">
    <g id="Layer_2_00000039817479287426663580000002022239267393654928_">
        <g id="Surfaces_00000013180303803292169050000003155769525423463324_">
            <g id="Photo_Surface_2_">
                <g id="Outline_no_shadow_00000073715384240732440140000014327426812104272037_">
                    <path d="M224.901,191.897C228.382,197.361 230.199,203.906 229.97,210.77C229.97,220.16 227.84,227.41 223.36,232.75C213.472,244.536 195.952,247.89 181.33,247.89L170.03,247.89C167.47,247.89 164.69,247.68 161.71,247.47L161.71,175.79C163.2,175.57 166.19,175.36 170.45,175.57C174.51,175.36 179.41,175.36 184.96,175.36C199.661,175.36 216.444,178.626 224.901,191.897Z" style="fill:rgb(207,159,140);fill-rule:nonzero;"/>
                    <path d="M421.33,6.4L90.67,6.4C40.53,6.4 0,46.93 0,97.07L0,414.93C0,465.07 40.53,505.6 90.67,505.6L421.33,505.6C471.47,505.6 512,465.07 512,414.93L512,97.07C512,46.93 471.47,6.4 421.33,6.4ZM263.68,254.93C255.15,266.88 243.2,275.84 229.33,280.96C214.83,286.29 198.83,288.21 181.33,288.21C176.21,288.21 172.8,288.21 170.67,288C168.53,287.79 165.55,287.79 161.49,287.79L161.49,356.27C161.71,357.76 160.64,359.04 159.15,359.25L117.76,359.25C116.05,359.25 115.2,358.4 115.2,356.48L115.2,136.96C115.2,135.47 115.84,134.61 117.33,134.61C120.96,134.61 124.37,134.61 129.28,134.4C134.4,134.19 139.73,134.19 145.49,133.97C151.25,133.76 157.44,133.76 164.05,133.55C170.67,133.33 177.07,133.33 183.47,133.33C200.96,133.33 215.47,135.47 227.41,139.95C238.08,143.57 247.89,149.55 256,157.44C262.83,164.27 268.16,172.59 271.57,181.76C274.77,190.72 276.48,199.89 276.48,209.49C276.48,227.84 272.21,242.99 263.68,254.93ZM414.93,337.92C408.96,346.45 400.64,353.07 391.04,356.91C380.59,361.39 367.79,363.73 352.43,363.73C342.61,363.73 333.01,362.88 323.41,360.96C315.95,359.68 308.48,357.33 301.65,354.13C300.16,353.28 299.09,351.79 299.31,350.08L299.31,312.96C299.31,312.32 299.52,311.47 300.16,311.04C300.8,310.61 301.44,310.83 302.08,311.25C310.4,316.16 319.15,319.57 328.53,321.71C336.64,323.84 345.17,324.91 353.71,324.91C361.81,324.91 367.57,323.84 371.41,321.92C374.83,320.43 377.17,316.8 377.17,312.96C377.17,309.97 375.47,307.2 372.05,304.43C368.64,301.65 361.6,298.45 351.15,294.4C340.27,290.56 330.24,285.44 320.85,279.04C314.24,274.35 308.69,268.16 304.64,260.91C301.23,254.08 299.52,246.61 299.73,239.15C299.73,229.97 302.29,221.23 306.99,213.33C312.32,204.8 320.21,197.97 329.39,193.71C339.41,188.59 352,186.24 367.15,186.24C375.89,186.24 384.85,186.88 393.6,188.16C400,189.01 406.19,190.72 411.95,193.07C412.8,193.28 413.65,194.13 414.08,194.99C414.29,195.84 414.51,196.69 414.51,197.55L414.51,232.32C414.51,233.17 414.08,234.03 413.44,234.45C411.52,234.88 410.45,234.88 409.6,234.45C403.2,231.04 396.37,228.69 389.12,227.2C381.23,225.49 373.33,224.43 365.23,224.43C360.96,224.21 356.48,224.85 352.43,225.92C349.65,226.56 347.31,228.05 345.81,230.19C344.75,231.89 344.11,234.03 344.11,235.95C344.11,237.87 344.96,239.79 346.24,241.49C348.16,243.84 350.72,245.76 353.49,247.25C358.4,249.81 363.52,252.16 368.64,254.29C380.16,258.13 391.25,263.47 401.49,269.87C408.53,274.35 414.29,280.32 418.35,287.57C421.76,294.4 423.47,301.87 423.25,309.55C423.47,319.57 420.48,329.6 414.93,337.92Z" style="fill:rgb(207,159,140);fill-rule:nonzero;"/>
                </g>
            </g>
        </g>
    </g>
</svg>
