<?xml version="1.0" encoding="UTF-8" standalone="no"?>
<!DOCTYPE svg PUBLIC "-//W3C//DTD SVG 1.1//EN" "http://www.w3.org/Graphics/SVG/1.1/DTD/svg11.dtd">
<svg width="100%" height="100%" viewBox="0 0 512 512" version="1.1" xmlns="http://www.w3.org/2000/svg" xmlns:xlink="http://www.w3.org/1999/xlink" xml:space="preserve" xmlns:serif="http://www.serif.com/" style="fill-rule:evenodd;clip-rule:evenodd;stroke-linejoin:round;stroke-miterlimit:2;">
    <g id="Layer_2_00000080914336643268906040000013680685670080058297_">
        <g id="Surfaces_00000068635135053254290230000014452915921741667200_">
            <g id="Video_Audio_Surface">
                <g id="Outline_no_shadow_00000182512826952423199550000010114509087919609763_">
                    <path d="M231.471,191.783C234.881,197.552 236.591,204.162 236.371,210.772C236.371,220.161 234.241,227.411 229.761,232.751C225.071,238.081 219.091,242.131 212.272,244.05C204.372,246.61 196.052,247.89 187.733,247.89L176.423,247.89C173.863,247.89 171.093,247.68 168.103,247.47L168.103,175.783C169.603,175.573 172.583,175.363 176.853,175.573C180.903,175.363 185.813,175.363 191.363,175.363C200.112,175.143 208.642,176.423 216.532,179.623C222.721,181.973 227.841,186.243 231.471,191.783Z" style="fill:rgb(207,159,140);fill-rule:nonzero;"/>
                    <path d="M421.334,6.4L90.666,6.4C40.538,6.4 0,46.938 0,97.066L0,414.934C0,465.062 40.538,505.6 90.666,505.6L421.334,505.6C471.462,505.6 512,465.062 512,414.934L512,97.066C512,46.938 471.462,6.4 421.334,6.4ZM270.079,254.93C251.11,281.489 218.531,288.209 187.733,288.209C182.613,288.209 179.203,288.209 177.063,287.999C174.933,287.789 171.943,287.789 167.893,287.789L167.893,356.266C168.103,357.756 167.043,359.036 165.544,359.256L124.165,359.256C122.455,359.256 121.605,358.396 121.605,356.476L121.605,136.965C121.605,135.465 122.245,134.615 123.735,134.615C127.365,134.615 130.775,134.615 135.685,134.405L189.873,133.335C207.362,133.335 221.871,135.465 233.811,139.945C253.77,147.434 270.419,161.464 277.969,181.763C286.549,204.802 284.579,234.641 270.079,254.93ZM415.574,229.331C415.574,231.041 414.504,231.681 412.154,231.681C404.474,231.471 396.585,232.111 389.115,233.811C382.935,235.091 376.955,237.011 371.196,239.571C367.146,241.491 363.306,244.05 360.316,247.47L360.316,356.266C360.316,358.396 359.466,359.256 357.546,359.256L315.518,359.256C313.808,359.466 312.318,358.396 312.108,356.696L312.108,237.651C312.108,232.531 312.108,227.201 311.888,221.651C311.678,216.112 311.678,210.562 311.468,205.012C311.468,200.112 311.038,195.412 310.608,190.513C310.398,189.443 311.038,188.373 312.108,188.163C312.108,187.943 312.528,187.943 312.748,188.163L350.076,188.163C352.216,188.163 353.916,189.653 354.556,191.573C355.196,193.282 355.626,194.992 355.836,196.912C356.266,199.042 356.696,201.392 356.906,203.522C357.116,205.872 357.336,208.432 357.336,211.202C363.736,203.732 371.415,197.552 380.155,192.852C389.975,187.303 401.274,184.533 412.584,184.533C414.074,184.323 415.354,185.383 415.574,186.883L415.574,229.331Z" style="fill:rgb(207,159,140);fill-rule:nonzero;"/>
                </g>
            </g>
        </g>
    </g>
</svg>
